<svg width="29" height="29" viewBox="0 0 29 29" fill="none" xmlns="http://www.w3.org/2000/svg">
<path d="M14.5 2.41669C8.49458 2.41669 3.625 7.28627 3.625 13.2917C3.625 18.3304 7.05667 22.5596 11.7087 23.7921L14.5 26.5834L17.2913 23.7921C21.9433 22.5596 25.375 18.3304 25.375 13.2917C25.375 7.28627 20.5054 2.41669 14.5 2.41669ZM14.5 4.83335C16.5058 4.83335 18.125 6.45252 18.125 8.45835C18.125 10.4642 16.5058 12.0834 14.5 12.0834C12.4942 12.0834 10.875 10.4642 10.875 8.45835C10.875 6.45252 12.4942 4.83335 14.5 4.83335ZM14.5 22.1125C11.4792 22.1125 8.80875 20.5659 7.25 18.2217C7.28625 15.8171 12.0833 14.5 14.5 14.5C16.9046 14.5 21.7138 15.8171 21.75 18.2217C20.1912 20.5659 17.5208 22.1125 14.5 22.1125Z" fill="#7E86A0"/>
</svg>
