<svg width="23" height="18" viewBox="0 0 23 18" fill="none" xmlns="http://www.w3.org/2000/svg">
<path d="M15.2835 7.0757L12.0865 10.203C11.8951 10.1532 11.6981 10.1267 11.5 10.1242C10.89 10.1242 10.305 10.3612 9.87366 10.7832C9.44233 11.2051 9.20001 11.7773 9.20001 12.374C9.20257 12.5678 9.22961 12.7605 9.28051 12.9477L8.38351 13.8252C8.27572 13.9297 8.19017 14.0542 8.13179 14.1912C8.0734 14.3283 8.04334 14.4754 8.04334 14.6239C8.04334 14.7724 8.0734 14.9194 8.13179 15.0565C8.19017 15.1936 8.27572 15.318 8.38351 15.4225C8.49042 15.528 8.61761 15.6117 8.75775 15.6688C8.89788 15.7259 9.04819 15.7553 9.20001 15.7553C9.35182 15.7553 9.50213 15.7259 9.64227 15.6688C9.78241 15.6117 9.9096 15.528 10.0165 15.4225L10.9135 14.5451C11.1049 14.5949 11.3019 14.6213 11.5 14.6239C12.11 14.6239 12.695 14.3868 13.1263 13.9649C13.5577 13.543 13.8 12.9707 13.8 12.374C13.7974 12.1803 13.7704 11.9876 13.7195 11.8003L16.9165 8.67307C17.133 8.46125 17.2547 8.17395 17.2547 7.87438C17.2547 7.57482 17.133 7.28752 16.9165 7.0757C16.6999 6.86387 16.4062 6.74487 16.1 6.74487C15.7937 6.74487 15.5 6.86387 15.2835 7.0757ZM11.5 0C9.9898 0 8.49439 0.290967 7.09915 0.856288C5.70391 1.42161 4.43617 2.25021 3.3683 3.29479C1.21164 5.40441 3.52453e-05 8.26567 3.52453e-05 11.2491C-0.00562801 13.4771 0.671314 15.6556 1.94353 17.5036C2.11433 17.7513 2.37869 17.9224 2.67847 17.9793C2.97825 18.0363 3.28888 17.9744 3.54202 17.8074C3.79517 17.6403 3.9701 17.3817 4.02833 17.0884C4.08656 16.7952 4.02332 16.4914 3.85252 16.2437C2.92622 14.8888 2.3935 13.3133 2.31124 11.6853C2.22899 10.0573 2.60029 8.43802 3.38549 7.00036C4.1707 5.5627 5.34033 4.36064 6.76949 3.52253C8.19865 2.68442 9.83368 2.24174 11.5 2.24174C13.1663 2.24174 14.8013 2.68442 16.2305 3.52253C17.6597 4.36064 18.8293 5.5627 19.6145 7.00036C20.3997 8.43802 20.771 10.0573 20.6888 11.6853C20.6065 13.3133 20.0738 14.8888 19.1475 16.2437C19.0627 16.3663 19.0035 16.504 18.9732 16.649C18.943 16.7939 18.9422 16.9433 18.9711 17.0886C18.9999 17.2338 19.0578 17.3721 19.1413 17.4954C19.2249 17.6187 19.3325 17.7248 19.458 17.8074C19.6483 17.9325 19.8726 17.9991 20.102 17.9986C20.2903 17.9989 20.4759 17.9539 20.6423 17.8676C20.8088 17.7813 20.951 17.6563 21.0565 17.5036C22.3287 15.6556 23.0056 13.4771 23 11.2491C23 8.26567 21.7884 5.40441 19.6317 3.29479C17.475 1.18517 14.55 0 11.5 0Z" fill="#6DDBDA"/>
</svg>