<svg width="20" height="36" viewBox="0 0 20 36" fill="none" xmlns="http://www.w3.org/2000/svg">
<path d="M10.8049 16.0655C6.41784 14.9253 5.00703 13.7464 5.00703 11.9104C5.00703 9.80384 6.95897 8.33505 10.2251 8.33505C12.9694 8.33505 14.3416 9.37866 14.844 11.0407C15.076 11.8138 15.7137 12.3935 16.5254 12.3935H17.1052C18.3807 12.3935 19.2891 11.1373 18.8445 9.93912C18.0329 7.65864 16.1389 5.76467 13.124 5.03028V3.69677C13.124 2.0927 11.8292 0.797852 10.2251 0.797852C8.62102 0.797852 7.32616 2.0927 7.32616 3.69677V4.9723C3.57689 5.784 0.562012 8.21909 0.562012 11.949C0.562012 16.4134 4.25331 18.6359 9.6453 19.9307C14.4768 21.0903 15.4431 22.791 15.4431 24.5883C15.4431 25.9218 14.4962 28.0477 10.2251 28.0477C7.03627 28.0477 5.39355 26.9075 4.75579 25.2841C4.46589 24.5304 3.8088 23.9892 3.01643 23.9892H2.4753C1.18045 23.9892 0.272119 25.3034 0.755273 26.5016C1.85686 29.188 4.42724 30.7727 7.32616 31.3911V32.686C7.32616 34.2901 8.62102 35.5849 10.2251 35.5849C11.8292 35.5849 13.124 34.2901 13.124 32.686V31.4298C16.8926 30.7147 19.8882 28.5309 19.8882 24.569C19.8882 19.0804 15.1919 17.2058 10.8049 16.0655Z" fill="#6EB8DB"/>
</svg>