<svg width="14" height="14" viewBox="0 0 14 14" fill="none" xmlns="http://www.w3.org/2000/svg">
<path d="M6.02541 3.63187C5.86082 1.75524 3.88569 0.834429 3.8021 0.796845C3.72396 0.760435 3.63639 0.748802 3.55134 0.763532C1.27115 1.13852 0.928175 2.45396 0.914387 2.50862C0.895628 2.5848 0.898612 2.66466 0.923005 2.73925C3.64268 11.1034 9.29489 12.6537 11.1528 13.1637C11.2959 13.203 11.4139 13.2346 11.5035 13.2636C11.6058 13.2967 11.7169 13.2903 11.8146 13.2457C11.8715 13.22 13.2141 12.5931 13.5424 10.5482C13.557 10.4589 13.5425 10.3674 13.5011 10.2868C13.4718 10.2304 12.7695 8.90558 10.8219 8.43749C10.7558 8.42074 10.6866 8.42015 10.6203 8.43578C10.5539 8.4514 10.4924 8.48277 10.441 8.52718C9.82658 9.04738 8.97776 9.60174 8.61152 9.65897C6.1564 8.4691 4.78536 6.18587 4.73365 5.7528C4.70349 5.50936 5.26621 4.65432 5.91339 3.95902C5.95406 3.91526 5.98505 3.86355 6.00434 3.8072C6.02363 3.75086 6.03081 3.69113 6.02541 3.63187Z" fill="#DB6F6F"/>
</svg>
