<svg width="29" height="29" viewBox="0 0 29 29" fill="none" xmlns="http://www.w3.org/2000/svg">
<path d="M14.2583 13.1708C11.5154 12.4579 10.6333 11.7208 10.6333 10.5729C10.6333 9.25583 11.8538 8.3375 13.8958 8.3375C15.6117 8.3375 16.4696 8.99 16.7838 10.0292C16.9288 10.5125 17.3275 10.875 17.835 10.875H18.1975C18.995 10.875 19.5629 10.0896 19.285 9.34042C18.7775 7.91458 17.5933 6.73042 15.7083 6.27125V5.4375C15.7083 4.43458 14.8988 3.625 13.8958 3.625C12.8929 3.625 12.0833 4.43458 12.0833 5.4375V6.235C9.73917 6.7425 7.85417 8.265 7.85417 10.5971C7.85417 13.3883 10.1621 14.7779 13.5333 15.5875C16.5542 16.3125 17.1583 17.3758 17.1583 18.4996C17.1583 19.3333 16.5663 20.6625 13.8958 20.6625C11.9021 20.6625 10.875 19.9496 10.4763 18.9346C10.295 18.4633 9.88417 18.125 9.38875 18.125H9.05042C8.24084 18.125 7.67292 18.9467 7.975 19.6958C8.66375 21.3754 10.2708 22.3663 12.0833 22.7529V23.5625C12.0833 24.5654 12.8929 25.375 13.8958 25.375C14.8988 25.375 15.7083 24.5654 15.7083 23.5625V22.7771C18.0646 22.33 19.9375 20.9646 19.9375 18.4875C19.9375 15.0558 17.0013 13.8837 14.2583 13.1708Z" fill="#7E86A0"/>
<path d="M20.6326 16.0477C17.7566 16.0477 15.4224 18.3819 15.4224 21.2579C15.4224 24.134 17.7566 26.4682 20.6326 26.4682C23.5087 26.4682 25.8429 24.134 25.8429 21.2579C25.8429 18.3819 23.5087 16.0477 20.6326 16.0477ZM19.2207 23.4931L17.3502 21.6227C17.147 21.4195 17.147 21.0912 17.3502 20.888C17.5534 20.6848 17.8816 20.6848 18.0848 20.888L19.5906 22.3886L23.1753 18.8039C23.3785 18.6007 23.7067 18.6007 23.9099 18.8039C24.1131 19.0071 24.1131 19.3353 23.9099 19.5385L19.9553 23.4931C19.7573 23.6963 19.4239 23.6963 19.2207 23.4931Z" fill="#7E86A0"/>
</svg>
