<svg width="29" height="29" viewBox="0 0 29 29" fill="none" xmlns="http://www.w3.org/2000/svg">
<path d="M14.4924 0C18.0618 0.113396 21.4539 1.58199 23.979 4.10715C26.5042 6.63231 27.9728 10.0244 28.0862 13.5938H14.4924V0ZM14.0393 14.5C13.9191 14.5 13.8039 14.4523 13.7189 14.3673C13.6339 14.2823 13.5862 14.1671 13.5862 14.0469V0C10.8487 0.0898276 8.19717 0.978018 5.95791 2.55527C3.71865 4.13253 1.98937 6.33003 0.982845 8.87737C-0.0236751 11.4247 -0.263512 14.2107 0.292847 16.8926C0.849207 19.5745 2.17749 22.0352 4.11424 23.972C6.05099 25.9087 8.51171 27.237 11.1936 27.7934C13.8755 28.3497 16.6615 28.1099 19.2088 27.1034C21.7562 26.0968 23.9537 24.3675 25.5309 22.1283C27.1082 19.889 27.9964 17.2375 28.0862 14.5H14.0393Z" fill="#7E86A0"/>
</svg>