<svg width="128" height="128" viewBox="0 0 128 128" fill="none" xmlns="http://www.w3.org/2000/svg">
<path d="M125 93.4C124.6 91.1 123.1 89 121 88C114 84.5 98.7 79.4 98.7 79.4V74.3L99.1 74C102 71.8 104.1 68.4 104.7 64.7L104.8 64.2H105.2C107.6 64.2 109.6 62.7 110.4 60.7C110.9 59.8 111.2 58.8 111.2 57.7C111.2 57 111.1 56.3 110.8 55.6C110.7 54.9 110.2 54.2 109.7 53.8L108.3 52.9L108.6 51.4C111.2 40.3 102.5 30.2 90.9 30C90.6 30 90.3 30 90.1 30C89.8 30 89.5 30 89.3 30C77.6 30.1 69 40.2 71.5 51.3L71.9 52.8L70.5 53.7C69.9 54.1 69.5 54.8 69.4 55.5C69.1 56.2 69 56.9 69 57.6C69 58.7 69.3 59.7 69.8 60.6C70.6 62.7 72.7 64.1 75 64.1H75.4L75.5 64.6C76.1 68.3 78.1 71.7 81.1 73.9L81.5 74.2V79.3C81.5 79.3 66.2 84.4 59.2 87.9C57.1 89 55.6 91 55.2 93.3C54 100.3 53.8 112.1 53.8 112.1H126.5C126.4 112.2 126.2 100.4 125 93.4Z" fill="#373737"/>
<path d="M56.9 83.5C60.9 81.5 67.2 79.1 72.2 77.3C71.5 75.9 70.3 74.7 68.9 74C61.9 70.5 46.6 65.4 46.6 65.4V60.3L47 60C49.9 57.8 52 54.4 52.6 50.7L52.7 50.2H53.1C55.5 50.2 57.5 48.7 58.3 46.7C58.8 45.8 59.1 44.8 59.1 43.7C59.1 43 59 42.3 58.7 41.6C58.6 40.9 58.1 40.2 57.6 39.8L56.2 38.9L56.5 37.4C59.1 26.3 50.4 16.2 38.8 16C38.5 16 38.2 16 38 16C37.7 16 37.4 16 37.2 16C25.6 16.3 17 26.3 19.5 37.4L19.9 38.9L18.5 39.8C17.9 40.2 17.5 40.9 17.4 41.6C17.1 42.3 17 43 17 43.7C17 44.8 17.3 45.8 17.8 46.7C18.6 48.8 20.7 50.2 23 50.2H23.4L23.5 50.7C24 54.4 26 57.7 29 60L29.4 60.3V65.4C29.4 65.4 14.1 70.5 7.10001 74C5.00001 75.1 3.50001 77.1 3.10001 79.4C1.90001 86.4 1.70001 98.2 1.70001 98.2H49.5C49.7 96.2 49.9 94.3 50.2 92.6C50.9 88.6 53.4 85.3 56.9 83.5Z" fill="#373737"/>
</svg>
