<svg width="95" height="95" viewBox="0 0 95 95" fill="none" xmlns="http://www.w3.org/2000/svg">
<g clip-path="url(#clip0_312_2)">
<path d="M88.6713 53.5286C88.6713 61.3052 86.5235 68.5633 82.7833 74.7661C76.4325 85.3385 65.4897 92.8188 52.714 94.4667H52.6399C50.9365 94.6889 49.1775 94.8 47.4 94.8H47.3815C45.604 94.8 43.8635 94.6889 42.1601 94.4667C42.123 94.4667 42.086 94.4667 42.049 94.4482C29.2917 92.8003 18.349 85.32 12.0166 74.7661C8.27647 68.5633 6.12866 61.3052 6.12866 53.5286C6.12866 38.9198 13.7201 26.0885 25.1442 18.7563C31.5691 14.6458 39.1976 12.2573 47.3815 12.2573C55.7135 12.2573 63.4715 14.7199 69.952 18.96C81.228 26.3477 88.6713 39.0679 88.6713 53.5286Z" fill="#B0BAC6"/>
<path d="M57.2688 69.7485L56.8244 67.4155C56.8244 67.4155 56.5097 67.9339 55.8986 68.6745C55.7135 68.8782 55.5283 69.1189 55.2876 69.3596C55.2136 69.4337 55.1395 69.5263 55.0654 69.6003C53.5472 71.1927 51.0661 73.0998 47.9369 73.3035H47.3815C47.2519 73.3035 47.1408 73.3035 47.0297 73.2849H46.826C44.5486 73.1368 42.6415 72.0999 41.1602 70.9335C40.5122 70.415 39.9567 69.8781 39.4938 69.3967C39.2531 69.1374 39.0309 68.8967 38.8458 68.656C38.2348 67.9154 37.92 67.397 37.92 67.397L37.0868 71.7667L37.1053 71.8592L42.0305 94.4483C42.0675 94.4483 42.1045 94.4668 42.1416 94.4668C43.845 94.689 45.5855 94.8001 47.363 94.8001H47.3815C49.159 94.8001 50.8994 94.689 52.6214 94.4668H52.6954L57.6391 71.7852L57.2688 69.7485Z" fill="white"/>
<path d="M24.7554 35.5684C22.5891 36.383 21.5337 38.2531 21.5337 40.6972C21.5337 43.8449 24.0888 46.4185 27.255 46.4185C27.5883 46.4185 27.9031 46.3815 28.2178 46.3259C26.8847 43.2709 25.3294 39.864 24.7554 35.5684Z" fill="#C3A898"/>
<path d="M70.0076 35.5684C72.1739 36.383 73.2293 38.2531 73.2293 40.6972C73.2293 43.8449 70.6742 46.4185 67.508 46.4185C67.1747 46.4185 66.8599 46.3815 66.5452 46.3259C67.8783 43.2709 69.4151 39.864 70.0076 35.5684Z" fill="#D4C1B5"/>
<path d="M38.8457 58.4167V69.1558C38.8457 69.1558 41.2898 73.3218 47.3629 73.3218V62.0643C47.3814 62.0643 44.1782 59.5832 38.8457 58.4167Z" fill="#C3A898"/>
<path d="M42.16 94.4668C42.123 94.4668 42.086 94.4668 42.049 94.4482C29.2917 92.8004 18.3489 85.32 12.0166 74.7661C12.5165 74.6736 13.3127 74.5069 14.3311 74.2662C15.9975 73.8959 18.2379 73.359 20.7004 72.6924C22.2557 72.2665 23.8851 71.7851 25.5145 71.2482C31.9024 69.1559 38.2162 66.286 38.8457 62.8976V62.8606C38.8457 62.8606 39.105 65.5454 39.4753 69.3966C39.4938 69.6003 39.5123 69.8225 39.5308 70.0447C39.5679 70.4335 39.6049 70.8408 39.6604 71.2482C40.4381 78.9507 41.5305 89.8008 42.16 94.4668Z" fill="#231F20"/>
<path d="M55.8987 58.4167V69.1558C55.8987 69.1558 53.4546 73.3218 47.3815 73.3218V62.0643C47.3815 62.0643 50.5847 59.5832 55.8987 58.4167Z" fill="#D4C1B5"/>
<path d="M47.3815 62.6199C43.4376 62.6199 38.8643 58.7131 38.8643 58.7131V60.935C41.5861 64.2678 47.3815 64.8048 47.3815 64.8048C47.3815 64.8048 53.1769 64.2678 55.8986 60.935V58.7131C55.8986 58.7131 51.3253 62.6199 47.3815 62.6199Z" fill="#BA9E81"/>
<path d="M71.4703 12.85C70.6741 10.7392 68.9892 9.96152 68.6929 9.83191C68.6744 9.40605 68.5633 7.86926 67.5264 6.81387C66.2674 5.53629 64.1381 5.46223 62.3976 6.81387C62.3421 6.51762 61.9903 4.49941 60.3424 3.46254C58.8611 2.53676 56.917 2.77746 55.5098 4.1291C55.4728 3.70324 55.0654 2.12941 53.6027 1.11105C51.8993 -0.0554318 49.0664 -0.833088 47.2518 1.98129C45.4558 -0.833088 42.9192 -0.185041 41.2157 0.981444C39.7345 1.9998 39.3457 3.70324 39.3086 4.1291C37.8829 2.77746 35.9573 2.51824 34.4761 3.46254C32.8282 4.49941 32.4764 6.51762 32.4208 6.81387C30.6804 5.46223 28.5511 5.53629 27.292 6.81387C26.2551 7.86926 26.144 9.40605 26.1255 9.83191C25.8107 9.96152 24.1258 10.7207 23.3482 12.85C22.4039 15.3496 23.5148 17.627 23.6444 17.8677C23.4407 21.2746 23.0519 24.6629 23.0519 28.0698C23.0519 41.1233 31.7543 51.7143 31.7543 51.7143L47.4185 34.3651L63.0827 51.7143C63.0827 51.7143 71.785 41.1418 71.785 28.0698C71.785 24.6629 71.3962 21.2561 71.1925 17.8677C71.3036 17.6085 72.3961 15.3496 71.4703 12.85Z" fill="#231F20"/>
<path d="M47.3815 62.3235C47.3815 62.3235 21.8299 58.7129 25.5701 19.9597H47.3815V62.3235Z" fill="#C3A898"/>
<path d="M38.0866 40.1048C39.3751 40.1048 40.4196 38.8945 40.4196 37.4015C40.4196 35.9085 39.3751 34.6982 38.0866 34.6982C36.7982 34.6982 35.7537 35.9085 35.7537 37.4015C35.7537 38.8945 36.7982 40.1048 38.0866 40.1048Z" fill="#1D1D1D"/>
<path d="M47.3815 62.3235C47.3815 62.3235 72.933 58.7129 69.1929 19.9597H47.3815V62.3235Z" fill="#D4C1B5"/>
<path d="M82.7833 74.7659C76.4325 85.3384 65.4897 92.8187 52.714 94.4666H52.6399C53.2879 89.5229 54.4915 77.7284 55.2506 70.0259C55.2506 69.8778 55.2691 69.7667 55.2876 69.6371C55.2876 69.5445 55.3061 69.4705 55.3061 69.3779C55.6209 66.3228 55.8431 63.9898 55.9172 63.1937C55.9357 62.99 55.9357 62.8789 55.9357 62.8789C56.4911 65.9525 61.7311 68.6373 67.5079 70.674C73.8588 72.8959 80.8207 74.3771 82.7833 74.7659Z" fill="#231F20"/>
<path d="M56.6764 40.1048C57.9648 40.1048 59.0093 38.8945 59.0093 37.4015C59.0093 35.9085 57.9648 34.6982 56.6764 34.6982C55.3879 34.6982 54.3434 35.9085 54.3434 37.4015C54.3434 38.8945 55.3879 40.1048 56.6764 40.1048Z" fill="#1D1D1D"/>
<path d="M47.4 49.6958H43.4006L43.4562 49.7514C45.6225 51.8806 49.159 51.8806 51.3253 49.7514L51.3809 49.6958H47.4Z" fill="white"/>
<path d="M24.0333 35.0686L24.885 18.2749H69.9335L69.8965 34.6797C69.8965 34.6797 69.1744 39.1605 66.5637 40.1048C66.5637 40.1048 68.082 27.1439 61.1201 23.6444C61.1201 23.6444 63.916 28.0697 63.8049 31.0322C63.8049 31.0322 47.4926 20.8486 33.7725 21.2004C33.754 21.2004 26.8847 22.5335 24.0333 35.0686Z" fill="#231F20"/>
<path d="M38.8457 61.4902L35.1981 63.3788L37.383 68.2114L35.7536 68.8594L40.401 78.6727L38.8457 61.4902ZM55.8986 61.4902L59.5647 63.3788L57.3613 68.2114L58.9907 68.8594L54.3433 78.6727L55.8986 61.4902Z" fill="#474748"/>
</g>
<defs>
<clipPath id="clip0_312_2">
<rect width="94.8" height="94.8" fill="white"/>
</clipPath>
</defs>
</svg>
